<svg width="24" height="24" viewBox="0 0 24 24" fill="none" xmlns="http://www.w3.org/2000/svg">
<g clip-path="url(#clip0)">
<path d="M12 1C5.373 1 0 5.208 0 10.399C0 13.755 2.246 16.7 5.625 18.362C3.947 24.111 2.961 24.485 9.869 19.649C10.561 19.746 11.273 19.797 12 19.797C18.627 19.797 24 15.589 24 10.398C24 5.208 18.627 1 12 1V1Z" fill="#3E2723"/>
<path d="M10.384 8.26998C10.067 7.37698 8.85502 7.37598 8.53902 8.26898C7.55502 11.321 6.23702 13.204 7.04702 13.575C8.12502 14.064 8.14802 12.964 8.40602 12.475H10.517C10.774 12.962 10.799 14.063 11.876 13.575C12.689 13.204 11.387 11.38 10.384 8.26998ZM8.77002 11.257L9.46202 9.30599L10.153 11.257H8.77002Z" fill="#FFEB3B"/>
<path d="M5.36502 13.68C4.16702 13.68 4.87502 12.023 4.67302 8.938C4.24402 8.864 2.91302 9.235 2.91302 8.265C2.91302 7.894 3.21802 7.592 3.59202 7.592C6.11002 7.772 7.81602 7.122 7.81602 8.265C7.81602 9.252 6.54102 8.855 6.05602 8.938C5.85602 12.013 6.56102 13.68 5.36502 13.68V13.68Z" fill="#FFEB3B"/>
<path d="M13.154 13.579C11.995 13.579 12.7 12.014 12.491 8.27801C12.491 7.36801 13.904 7.36901 13.904 8.27801V12.318C14.573 12.407 16.039 11.988 16.039 12.948C16.038 13.955 14.463 13.451 13.154 13.579V13.579Z" fill="#FFEB3B"/>
<path d="M19.556 13.38L17.932 11.243L17.692 11.482V12.982C17.692 13.362 17.382 13.67 16.999 13.67C15.796 13.67 16.517 11.938 16.307 8.27803C16.307 7.89903 16.617 7.59003 16.999 7.59003C18.044 7.59003 17.593 9.06803 17.691 9.75603C19.651 7.88303 19.604 7.68403 20.007 7.68403C20.563 7.68403 20.904 8.37503 20.534 8.74203L18.956 10.309L20.66 12.552C21.216 13.277 20.105 14.108 19.556 13.38V13.38Z" fill="#FFEB3B"/>
</g>
<defs>
<clipPath id="clip0">
<rect width="24" height="24" fill="white"/>
</clipPath>
</defs>
</svg>
