<svg width="24" height="24" viewBox="0 0 24 24" fill="none" xmlns="http://www.w3.org/2000/svg">
<path fill-rule="evenodd" clip-rule="evenodd" d="M22.1538 12.4231C22.1538 11.6615 22.0692 10.9846 21.9846 10.3077H12.1692V14.2846H17.7538C17.5 15.5538 16.823 16.6538 15.723 17.4154V20.0384H19.1077C21.0538 18.2615 22.1538 15.6384 22.1538 12.4231Z" fill="#3E82F1"/>
<path fill-rule="evenodd" clip-rule="evenodd" d="M12.1692 22.5769C14.9615 22.5769 17.3307 21.6461 19.023 20.0384L15.6384 17.4153C14.7076 18.0076 13.523 18.4307 12.1692 18.4307C9.46149 18.4307 7.17688 16.5692 6.33072 14.2H2.94611V16.9076C4.63841 20.2076 8.19226 22.5769 12.1692 22.5769Z" fill="#32A753"/>
<path fill-rule="evenodd" clip-rule="evenodd" d="M6.41536 14.2C6.16152 13.5231 6.0769 12.9308 6.0769 12.1692C6.0769 11.4923 6.16152 10.8154 6.41536 10.2231V7.51538H2.94613C2.26921 8.95384 1.84613 10.5615 1.84613 12.1692C1.84613 13.7769 2.26921 15.3846 2.94613 16.8231L6.41536 14.2Z" fill="#F9BB00"/>
<path fill-rule="evenodd" clip-rule="evenodd" d="M12.1692 5.99228C13.6923 5.99228 15.0461 6.49998 16.1461 7.51536L19.1076 4.55382C17.3307 2.86152 14.9615 1.84613 12.1692 1.84613C8.19226 1.84613 4.63841 4.13075 2.94611 7.51536L6.41534 10.2231C7.26149 7.76921 9.54611 5.99228 12.1692 5.99228Z" fill="#E74133"/>
</svg>
